<svg xmlns="http://www.w3.org/2000/svg" width="115" height="23" viewBox="0 0 230 46"><defs><linearGradient id="a" x1="114.7208%" x2="39.5399%" y1="181.2832%" y2="100%"><stop offset="0%" stop-color="#FFF"/><stop offset="100%"/></linearGradient></defs><g fill="none" fill-rule="nonzero"><path fill="url(#a)" d="M25.4916 0l25.4916 45.2264H0z"/><path fill="#000" d="M85.75 34h20.45v-3.55H90.85l15.1-21.55V5.8H86v3.55h14.85L85.75 30.9V34zm41.85 0h18.35v-3.55h-14.2V21.4h12.35v-3.55h-12.35v-8.5h14.2V5.8H127.6V34zm40.45 0h17.9v-3.55h-6.85V9.35h6.85V5.8h-17.9v3.55h6.9v21.1h-6.9V34zm47.35 0h4.15V9.35h9.6V5.8H205.9v3.55h9.5V34z"/></g></svg>